HIERARCHY
ROOT reference
{
  OFFSET 0 0 0
  CHANNELS 6 Xposition Yposition Zposition Zrotation Xrotation Yrotation
  JOINT Hips
  {
    OFFSET -18.7171 75.6738 -44.899
    CHANNELS 6 Xposition Yposition Zposition Zrotation Xrotation Yrotation
    JOINT Spine
    {
      OFFSET 0 7.52385 0
      CHANNELS 6 Xposition Yposition Zposition Zrotation Xrotation Yrotation
      JOINT Spine1
      {
        OFFSET 0 21.7843 0
        CHANNELS 6 Xposition Yposition Zposition Zrotation Xrotation Yrotation
        JOINT Neck
        {
          OFFSET 0 21.6948 1.97225
          CHANNELS 6 Xposition Yposition Zposition Zrotation Xrotation Yrotation
          JOINT Head
          {
            OFFSET 0 12.8456 -1.83509
            CHANNELS 6 Xposition Yposition Zposition Zrotation Xrotation Yrotation
            End Site
            {
              OFFSET 0 22.9386 0
            }
          }
        }
        JOINT LeftShoulder
        {
          OFFSET 3.65748 19.7052 -0.211895
          CHANNELS 6 Xposition Yposition Zposition Zrotation Xrotation Yrotation
          JOINT LeftArm
          {
            OFFSET 11.1953 0 0
            CHANNELS 6 Xposition Yposition Zposition Zrotation Xrotation Yrotation
            JOINT LeftForeArm
            {
              OFFSET 29.6607 0 0
              CHANNELS 6 Xposition Yposition Zposition Zrotation Xrotation Yrotation
              JOINT LeftHand
              {
                OFFSET 23.3476 0 0
                CHANNELS 6 Xposition Yposition Zposition Zrotation Xrotation Yrotation
                End Site
                {
                  OFFSET 13.7631 0 0
                }
              }
            }
          }
        }
        JOINT RightShoulder
        {
          OFFSET -3.68053 19.7052 -0.211895
          CHANNELS 6 Xposition Yposition Zposition Zrotation Xrotation Yrotation
          JOINT RightArm
          {
            OFFSET -11.1953 0 0
            CHANNELS 6 Xposition Yposition Zposition Zrotation Xrotation Yrotation
            JOINT RightForeArm
            {
              OFFSET -29.6607 0 0
              CHANNELS 6 Xposition Yposition Zposition Zrotation Xrotation Yrotation
              JOINT RightHand
              {
                OFFSET -23.3476 0 0
                CHANNELS 6 Xposition Yposition Zposition Zrotation Xrotation Yrotation
                End Site
                {
                  OFFSET -13.7631 0 0
                }
              }
            }
          }
        }
      }
    }
    JOINT LeftUpLeg
    {
      OFFSET 9.17543 0 0
      CHANNELS 6 Xposition Yposition Zposition Zrotation Xrotation Yrotation
      JOINT LeftLeg
      {
        OFFSET 0 -39.1216 0
        CHANNELS 6 Xposition Yposition Zposition Zrotation Xrotation Yrotation
        JOINT LeftFoot
        {
          OFFSET 0 -35.3569 0
          CHANNELS 6 Xposition Yposition Zposition Zrotation Xrotation Yrotation
          JOINT LeftToeBase
          {
            OFFSET 0 -5.96403 13.7631
            CHANNELS 6 Xposition Yposition Zposition Zrotation Xrotation Yrotation
            End Site
            {
              OFFSET 0 0 3.67017
            }
          }
        }
      }
    }
    JOINT RightUpLeg
    {
      OFFSET -9.17543 0 0
      CHANNELS 6 Xposition Yposition Zposition Zrotation Xrotation Yrotation
      JOINT RightLeg
      {
        OFFSET 0 -39.1216 0
        CHANNELS 6 Xposition Yposition Zposition Zrotation Xrotation Yrotation
        JOINT RightFoot
        {
          OFFSET 0 -35.3569 0
          CHANNELS 6 Xposition Yposition Zposition Zrotation Xrotation Yrotation
          JOINT RightToeBase
          {
            OFFSET 0 -5.96403 13.7631
            CHANNELS 6 Xposition Yposition Zposition Zrotation Xrotation Yrotation
            End Site
            {
              OFFSET 0 0 3.67017
            }
          }
        }
      }
    }
  }
}
MOTION
Frames:	6
Frame Time:	0.004
0 0 0 0 0 -0 -0.570396 74.4323 -220.013 -0.410035 -8.46709 1.16605 -4.44089e-016 7.52385 2.84217e-014 0.8994 4.4915 -0.557922 0 21.7843 0 1.65534 -1.80312 -0.496696 0 21.6948 1.97225 0.96674 10.0015 -1.43924 -4.44089e-016 12.8456 -1.83509 -2.27494 5.13119 -1.77216 3.65748 19.7052 -0.211895 21.3116 -3.47671 -2.98235 11.1953 0 0 -21.6735 8.18564 1.28096 29.6607 1.42109e-014 2.84217e-014 3.77079 -3.38103 -5.97417 23.3476 0 -2.84217e-014 1.62072 -3.22673 -2.96149 -3.68053 19.7052 -0.211895 -18.548 -3.05736 -1.60787 -11.1953 0 0 21.2807 5.33027 4.76494 -29.6607 0 0 -3.74678 -6.44235 3.25129 -23.3476 0 0 -0.271756 -6.34779 4.7254 9.17543 0 -2.84217e-014 5.62391 11.0581 0.678097 3.55271e-015 -39.1216 0 -0.917498 5.21844 5.09445 7.10543e-015 -35.3569 -2.84217e-014 -0.992014 -11.6041 10.5531 0 -5.96403 13.7631 0 3.97569e-016 -0 -9.17543 1.42109e-014 0 -4.89921 11.6184 2.09907 3.55271e-015 -39.1216 2.84217e-014 1.311 3.6391 -1.74124 0 -35.3569 0 1.75584 -11.2687 -20.9712 0 -5.96403 13.7631 -1.98785e-016 -7.95139e-016 -0 
0 0 0 0 0 -0 -0.570396 74.4323 -220.013 -0.409403 -8.46708 1.17034 0 7.52385 2.84217e-014 0.894266 4.48104 -0.553598 -4.44089e-016 21.7843 2.84217e-014 1.66659 -1.78689 -0.492718 8.88178e-016 21.6948 1.97225 0.958148 10.0015 -1.43924 1.33227e-015 12.8456 -1.83509 -2.27467 5.11588 -1.77212 3.65748 19.7052 -0.211895 21.2983 -3.47671 -2.98235 11.1953 0 0 -21.675 8.1991 1.28923 29.6607 -1.42109e-014 2.84217e-014 3.76987 -3.38093 -5.9897 23.3476 2.84217e-014 2.84217e-014 1.63695 -3.22673 -2.95978 -3.68053 19.7052 -0.211895 -18.5478 -3.05802 -1.60257 -11.1953 0 2.84217e-014 21.2826 5.31709 4.75601 -29.6607 2.84217e-014 0 -3.73513 -6.44338 3.26325 -23.3476 0 0 -0.351639 -6.35197 4.70513 9.17543 -1.42109e-014 0 5.62074 11.0563 0.691057 0 -39.1216 0 -0.914876 5.21867 5.06562 7.10543e-015 -35.3569 -2.84217e-014 -1.03319 -11.6034 10.5734 1.42109e-014 -5.96403 13.7631 7.95139e-016 1.59028e-015 6.36111e-015 -9.17543 0 0 -4.90151 11.6157 2.09147 -3.55271e-015 -39.1216 0 1.30845 3.63908 -1.74823 -3.55271e-015 -35.3569 0 1.73055 -11.2666 -20.9533 -1.42109e-014 -5.96403 13.7631 1.98785e-016 7.95139e-016 6.36111e-015 
0 0 0 0 0 -0 -0.570396 74.4323 -220.013 -0.403176 -8.46695 1.21264 0 7.52385 0 0.876101 4.47174 -0.572171 -4.44089e-016 21.7843 0 1.68345 -1.78198 -0.511708 8.88178e-016 21.6948 1.97225 0.97996 9.99143 -1.43919 -8.88178e-016 12.8456 -1.83509 -2.30518 5.13682 -1.77218 3.65748 19.7052 -0.211895 21.3018 -3.47676 -2.9671 11.1953 0 2.84217e-014 -21.672 8.19782 1.26829 29.6607 0 0 3.77002 -3.38095 -5.98719 23.3476 0 -2.84217e-014 1.66462 -3.22677 -2.9461 -3.68053 19.7052 -0.211895 -18.5467 -2.85987 -1.69233 -11.1953 -2.84217e-014 0 21.28 5.12208 4.96446 -29.6607 0 0 -3.73256 -6.40739 3.20887 -23.3476 0 0 -0.336953 -6.31729 4.73003 9.17543 0 0 5.64242 11.0463 0.673068 0 -39.1216 2.84217e-014 -0.91403 5.21874 5.05632 0 -35.3569 0 -1.00526 -11.595 10.5568 0 -5.96403 13.7631 1.98785e-016 2.38542e-015 -3.18055e-015 -9.17543 0 -2.84217e-014 -4.87848 11.6279 2.07824 -1.77636e-015 -39.1216 0 1.29962 3.63223 -1.7853 5.32907e-015 -35.3569 0 1.70947 -11.2621 -20.9409 -1.42109e-014 -5.96403 13.7631 0 0 -0 
0 0 0 0 0 -0 -0.570396 74.4323 -220.014 -0.404052 -8.46701 1.19233 0 7.52385 0 0.902995 4.49483 -0.556778 4.44089e-016 21.7843 0 1.65609 -1.79464 -0.49549 0 21.6948 1.97225 0.98256 10.0135 -1.43929 -4.44089e-016 12.8456 -1.83509 -2.30481 5.10779 -1.7721 3.65748 19.7052 -0.211895 21.306 -3.47673 -2.979 11.1953 -2.84217e-014 0 -21.6787 8.19178 1.26996 29.6607 1.42109e-014 0 3.76983 -3.3675 -5.97887 23.3476 0 0 1.66962 -3.21393 -2.95846 -3.68053 19.7052 -0.211895 -18.5462 -2.84668 -1.69011 -11.1953 0 2.84217e-014 21.2804 5.11095 4.9702 -29.6607 0 2.84217e-014 -3.73357 -6.39347 3.20256 -23.3476 0 0 -0.346441 -6.30395 4.73227 9.17543 1.42109e-014 0 5.624 11.0574 0.676774 0 -39.1216 0 -0.899098 5.21862 5.07201 0 -35.3569 0 -1.01913 -11.6061 10.5486 0 -5.96403 13.7631 -0 -3.97569e-016 -0 -9.17543 1.42109e-014 0 -4.8951 11.6122 2.07705 0 -39.1216 0 1.31199 3.66457 -1.74662 3.55271e-015 -35.3569 -2.84217e-014 1.72422 -11.2782 -20.9725 -1.42109e-014 -5.96403 13.7631 7.95139e-016 1.59028e-015 6.36111e-015 
0 0 0 0 0 -0 -0.570396 74.4323 -220.014 -0.408254 -8.46701 1.19272 -4.44089e-016 7.52385 0 0.900732 4.49885 -0.553236 -4.44089e-016 21.7843 2.84217e-014 1.66192 -1.78294 -0.492056 0 21.6948 1.97225 0.98176 9.983 -1.43446 0 12.8456 -1.83509 -2.31466 5.15018 -1.77222 3.65748 19.7052 -0.211895 21.3067 -3.47675 -2.97209 11.1953 0 -2.84217e-014 -21.6838 8.2191 1.26622 29.6607 1.42109e-014 2.84217e-014 3.7785 -3.3956 -5.98715 23.3476 0 0 1.68764 -3.24154 -2.94201 -3.68053 19.7052 -0.211895 -18.5547 -2.85732 -1.69689 -11.1953 0 2.84217e-014 21.2803 5.1013 4.98134 -29.6607 0 0 -3.7919 -6.33105 3.17211 -23.3476 0 0 -0.013314 -6.22721 4.83328 9.17543 0 0 5.62399 11.0601 0.6806 0 -39.1216 2.84217e-014 -0.901765 5.22778 5.07141 0 -35.3569 0 -1.03863 -11.6059 10.5506 1.42109e-014 -5.96403 13.7631 5.96354e-016 7.95139e-016 -3.18055e-015 -9.17543 1.42109e-014 0 -4.89963 11.6196 2.0924 0 -39.1216 0 1.31733 3.67036 -1.73289 0 -35.3569 -2.84217e-014 1.71647 -11.2799 -20.9869 -2.84217e-014 -5.96403 13.7631 8.82781e-032 1.59028e-015 -3.18055e-015 
0 0 0 0 0 -0 -0.570396 74.4323 -220.015 -0.406221 -8.4603 1.24375 0 7.52385 0 0.883855 4.48265 -0.574645 0 21.7843 0 1.67604 -1.77586 -0.514039 -8.88178e-016 21.6948 1.97225 0.981419 9.99238 -1.42875 4.44089e-016 12.8456 -1.83509 -2.30756 5.14314 -1.7722 3.65748 19.7052 -0.211895 21.3076 -3.4692 -2.96447 11.1953 2.84217e-014 2.84217e-014 -21.6863 8.22061 1.25151 29.6607 1.42109e-014 -2.84217e-014 3.77454 -3.39394 -5.9779 23.3476 0 0 1.70812 -3.24103 -2.95018 -3.68053 19.7052 -0.211895 -18.55 -2.86155 -1.68732 -11.1953 2.84217e-014 -2.84217e-014 21.2809 5.10177 4.97449 -29.6607 0 0 -3.79639 -6.30868 3.17121 -23.3476 0 -2.84217e-014 0.023232 -6.20321 4.84181 9.17543 -1.42109e-014 0 5.65632 11.0431 0.645862 0 -39.1216 -2.84217e-014 -0.928741 5.23679 5.04005 0 -35.3569 0 -1.02173 -11.6039 10.5699 0 -5.96403 13.7631 1.98785e-016 0 -3.18055e-015 -9.17543 0 0 -4.87209 11.638 2.07562 -1.77636e-015 -39.1216 -2.84217e-014 1.30502 3.64409 -1.7899 0 -35.3569 2.84217e-014 1.71845 -11.2771 -20.9767 0 -5.96403 13.7631 -8.82781e-032 7.95139e-016 6.36111e-015 
